<svg xmlns:xlink="http://www.w3.org/1999/xlink" xmlns="http://www.w3.org/2000/svg" fill="currentColor" viewBox="0 0 24 24"   class="x1lliihq x1k90msu x2h7rmj x1qfuztq xcza8v6 x1fgtraw xgd8bvy" width="28"  height="28" ><g fill-rule="evenodd" transform="translate(-444 -204)" fill="#65676B"><g fill="#65676B"><path fill-rule="nonzero" d="M98.5 5.75v4a.75.75 0 1 0 1.5 0v-4a.75.75 0 1 0-1.5 0z" transform="translate(351.5 208.5)" fill="#65676B"></path><path fill-rule="nonzero" d="M97.25 8.5h4a.75.75 0 1 0 0-1.5h-4a.75.75 0 1 0 0 1.5z" transform="translate(351.5 208.5)" fill="#65676B"></path><path fill-rule="nonzero" d="M109.5 14.5h-10a7 7 0 0 1 0-14h10a7 7 0 0 1 0 14zm0-1.5a5.5 5.5 0 0 0 0-11h-10a5.5 5.5 0 0 0 0 11h10z" transform="translate(351.5 208.5)" fill="#65676B"></path><path d="M109 9.25a1.25 1.25 0 1 1-2.5 0 1.25 1.25 0 0 1 2.5 0m3-3a1.25 1.25 0 1 1-2.5 0 1.25 1.25 0 0 1 2.5 0" transform="translate(351.5 208.5)" fill="#65676B"></path></g></g></svg>